<?xml version="1.0" encoding="utf-8"?>
<!-- Generator: Adobe Illustrator 16.0.3, SVG Export Plug-In . SVG Version: 6.00 Build 0)  -->
<!DOCTYPE svg PUBLIC "-//W3C//DTD SVG 1.1//EN" "http://www.w3.org/Graphics/SVG/1.1/DTD/svg11.dtd">
<svg version="1.1" id="Capa_1" xmlns="http://www.w3.org/2000/svg" xmlns:xlink="http://www.w3.org/1999/xlink" x="0px" y="0px"
	 width="1980px" height="1080px" viewBox="0 0 1980 1080" enable-background="new 0 0 1980 1080" xml:space="preserve">
<g>
	<path fill-rule="evenodd" clip-rule="evenodd" fill="#FFFFFF" d="M517,521.603c0-78.638,0-157.274,0-235.956
		c306.667,0,613.334,0,920,0c0,59.001,0,117.979,0,176.956c-4.119,0.077-7.67-0.61-7.38-5.998c-3.119,0-5.85-0.384-8.423,0.088
		c-4.215,0.771-10.29,0.804-12.054,3.476c-3.203,4.854-7.729,4.056-11.673,5.614c-2.398,0.947-4.974,1.443-7.938,2.273
		c0,5.322,0,10.333,0,15.344c-0.639,0.153-1.278,0.308-1.918,0.462c-1.698-4.741-3.396-9.482-5.172-14.437
		c-2.408-0.402-4.824-0.807-7.633-1.276c0-5.877,0.057-11.681-0.047-17.481c-0.021-1.215-0.519-3.418-0.999-3.476
		c-5.356-0.642-3.455-4.652-3.763-7.62c-0.66-6.377-0.764-12.876-2.135-19.096c-1.073-4.866-2.787-10.173-5.908-13.844
		c-3.256-3.828-9.032-5.548-8.028-12.053c-1.186,0.132-1.542,0.097-1.825,0.224c-0.275,0.124-0.688,0.423-0.679,0.631
		c0.232,5.824-4.024,8.685-7.686,12.053c-1.658,1.524-2.947,3.532-4.118,5.491c-4.102,6.859-5.561,14.435-5.664,22.323
		c-0.053,3.912-0.01,7.826-0.01,11.646c-2.652,0.447-4.214,0.711-6.156,1.038c0,7.621,0,14.925,0,22.243
		c-4.879,0.905-9.313,1.793-13.776,2.503c-0.877,0.14-2.61-0.266-2.682-0.653c-0.699-3.798-3.588-2.171-5.543-2.221
		c-6.401-0.164-12.809-0.062-19.446-0.062c0-0.866,0.03-1.676-0.005-2.482c-0.491-11.354-0.968-22.708-1.525-34.058
		c-0.056-1.125-0.536-2.257-0.958-3.331c-3.75-9.579-6.969-19.422-11.47-28.636c-4.091-8.374-6.128-16.911-6.193-26.075
		c-0.027-3.779-0.005-7.56-0.005-11.339c-0.521,0.003-1.041,0.007-1.563,0.01c-0.546,5.072-1.26,10.132-1.601,15.218
		c-0.55,8.21-2.244,15.719-7.028,22.907c-3.793,5.7-4.502,13.396-8.05,19.327c-6.425,10.736-4.81,22.942-7.464,34.323
		c-1.609,6.898-0.297,14.479-0.297,22.465c-3.56-0.531-7.361,0.045-9.008-1.573c-3.808-3.739-9.002-2.221-10.528-0.483
		c-2.583,2.937-5.138,2.293-7.838,2.664c-1.759,0.241-3.577,0.045-5.507,0.045c-0.223,2.45,0.11,5.789-0.655,6.063
		c-4.263,1.528-2.289,4.892-2.649,7.442c-0.432,3.043-0.422,6.147-0.604,9.226c-0.459,0.147-0.918,0.296-1.377,0.443
		c-1.33-1.971-2.66-3.941-4.402-6.522c-2.165,0-5.089,0-8.624,0c0-14.073,0-27.74,0-40.925c-6.549-2.828-13.95-0.108-18.813-5.837
		c-1.544,0.733-3.034,1.441-5.75,2.731c0-9.195-0.02-17.168,0.025-25.14c0.006-0.96,0.024-2.303,0.609-2.816
		c4.438-3.895,0.82-3.749-1.959-4.14c-1.283-0.181-2.547-0.508-3.167-0.636c-2.335-10.396-11.256-15.178-16.651-23.626
		c-5.129,8.896-14.484,13.549-16.322,24.268c-7.025-1.783-6.529,2.474-6.518,7.563c0.046,20.646-0.383,41.293-0.631,61.939
		c-0.113,9.453-0.107,9.453-9.864,11.505c-0.173-7.31-1.546-14.634-1.901-21.657c-1.342-26.584-0.85-53.261-1.069-79.902
		c-0.012-1.472,0.167-3.982-0.468-4.242c-4.009-1.642-2.408-4.923-2.521-7.584c-0.182-4.284-0.049-8.582-0.049-12.645
		c-11.426-3.649-22.346-7.21-33.66-1.764c-0.358,3.983-0.553,7.978-1.11,11.919c-0.865,6.116-2.323,12.165-2.884,18.302
		c-0.494,5.405-0.104,10.893-0.104,16.622c-4.988,0.503-9.258,0.925-13.525,1.364c-4.218,0.435-8.738,0.13-10.617,5.438
		c-0.236,0.665-2.5,0.989-3.756,0.852c-6.426-0.706-12.814-1.754-19.246-2.381c-2.434-0.237-4.871,0.052-5.648,3.44
		c-0.857,3.74-2.326,7.34-3.527,11c-1.178,1.512-2.525,3.142-2.576,4.812c-0.232,7.658-0.058,15.328-0.145,22.993
		c-0.016,1.416-0.35,3.956-0.903,4.063c-4.619,0.884-2.958,4.419-3.312,7.081c-0.249,1.878-0.434,3.765-0.501,4.356
		c-3.587,0.843-6.082,1.429-9.374,2.202c-6.999-4.639-6.999-4.639-6.999-13.285c0-10.479,0-20.958,0-31.594
		c-2.856-0.557-5.371-1.047-7.886-1.537c0.448-0.203,0.896-0.406,1.346-0.61c-0.672-2.437-1.345-4.873-2.152-7.801
		c-5.916,4.469-22.615,2.154-29.438-3.275c-1.219,1.51-2.444,3.025-3.554,4.399c1.079,1.85,2.006,3.438,3.397,5.821
		c-3.848,0-6.602,0-9.771,0c0,2.053,0,3.683,0,5.313c0,12.332,0.027,24.664-0.038,36.995c-0.007,1.356-0.489,3.87-0.834,3.885
		c-3.592,0.155-2.138,2.803-2.25,4.421c-0.205,2.95-0.058,5.925-0.058,8.89c-0.659,0.04-1.317,0.079-1.976,0.119
		c-0.271-1.271-0.769-2.54-0.769-3.81c0.002-3.495,0.254-6.989,0.315-10.484c0.02-1.095-0.106-3.105-0.417-3.156
		c-4.915-0.805-2.943-4.614-2.977-7.143c-0.175-13.299-0.082-26.602-0.082-40.193c-2.729-0.445-5.322-0.869-6.604-1.079
		c-0.979-3.263-1.791-5.972-2.82-9.402c-5.739,7.062-11.587,2.748-16.886,2.402c-5.508-0.359-11.911,0.653-14.957-6.698
		c-1.698,2.538-2.882,4.31-3.989,5.963c1.108,1.85,2.043,3.41,3.296,5.501c-3.841,0.502-6.738,0.881-9.99,1.306
		c0,3.629,0,6.894,0,10.532c-4.146-0.334-7.841-0.632-11.667-0.94c-0.701,0.819-1.624,1.898-3.049,3.564
		c-0.676-1.61-1.167-2.781-1.659-3.952c-0.682,0.319-1.365,0.638-2.047,0.957c0,29.513,0,59.024,0,89.156
		c-5.911-0.75-11.201,1.062-14.619-4.514c-0.655-1.068-2.792-1.826-4.185-1.74c-5.374,0.33-10.724,1.061-16.364,1.673
		c-0.878,1.602,0.58,6.077-4.54,3.83c0-25.352,0-50.866,0-76.751c-9.491-0.823-18.559-1.609-27.981-2.427c0-1.864,0-3.789,0-6.133
		c-8.068-0.597-15.64-4.463-23.77-0.789c-0.049,0.896-0.095,1.708-0.14,2.52c-0.266,4.841-2.307,6.829-6.854,7.068
		c-2.473,0.131-4.916,0.836-7.389,0.976c-3.722,0.209-4.877,1.829-4.854,5.656c0.173,28.995,0.057,57.992,0.145,86.988
		c0.01,3.436,0.252,6.659-4.013,7.957c-0.333-0.647-0.745-1.447-0.92-1.786c-1.506,0.921-2.937,1.795-5.061,3.093
		c0.278-2.352,0.401-3.397,0.526-4.458c-10.775-0.643-10.775-0.643-12.531,4.192c-5.999-1.949-12.132-5.974-18.69-1.732
		c-0.106,0.069-0.337,0.003-0.486-0.058c-3.099-1.274-6.195-2.558-9.919-4.099c0-5.696,0-12.146,0-19.226
		c-8.009,0-15.611,0-23.107,0c-0.633-1.897-1.066-3.195-1.75-5.242c-4.786,1.189-9.281,2.307-14.922,3.709
		c0-30.307,0-59.972,0-89.613c-13.765-1.756-26.933-3.49-40.117-5.102c-11.331-1.384-22.697-3.16-34.109,1.317
		c-0.4,8.08,0.801,16.281,0.242,24.538c-0.595,8.792-0.134,17.655-0.134,26.487c0,8.665,0,17.331,0,25.997c0,8.81,0,17.62,0,26.277
		c-3.347,1.428-6.336,2.702-9.326,3.978c0.166,0.384,0.332,0.767,0.497,1.15c-1.729,0.944-3.401,2.566-5.195,2.713
		c-6.795,0.557-13.629,0.698-20.451,0.87c-4.605,0.116-9.216,0.022-14.078,0.022c-0.373-7.937-0.741-15.753-1.121-23.826
		c-4.191,0.463-7.271,1.111-10.332,1.031C520.981,523.343,518.997,522.237,517,521.603z"/>
	<path fill-rule="evenodd" clip-rule="evenodd" fill="#898989" d="M511,521.549c1.997,0.635,3.981,1.74,5.994,1.794
		c3.061,0.08,6.141-0.568,10.332-1.031c0.379,8.073,0.748,15.89,1.121,23.826c4.862,0,9.473,0.094,14.078-0.022
		c6.822-0.172,13.656-0.313,20.451-0.87c1.794-0.146,3.467-1.769,5.195-2.713c-0.166-0.384-0.331-0.767-0.497-1.15
		c2.99-1.275,5.979-2.55,9.326-3.978c0-8.657,0-17.468,0-26.277c0-8.666,0-17.332,0-25.997c0-8.832-0.461-17.695,0.134-26.487
		c0.559-8.257-0.642-16.458-0.242-24.538c11.412-4.478,22.779-2.701,34.109-1.317c13.184,1.611,26.352,3.346,40.117,5.102
		c0,29.642,0,59.307,0,89.613c5.642-1.402,10.137-2.52,14.922-3.709c0.683,2.047,1.116,3.345,1.75,5.242c7.497,0,15.098,0,23.107,0
		c0,7.08,0,13.529,0,19.226c3.725,1.541,6.82,2.824,9.919,4.099c0.149,0.061,0.379,0.127,0.486,0.058
		c6.558-4.241,12.692-0.217,18.69,1.732c1.756-4.835,1.756-4.835,12.531-4.192c-0.125,1.061-0.249,2.106-0.526,4.458
		c2.124-1.298,3.555-2.172,5.061-3.093c0.175,0.339,0.587,1.139,0.92,1.786c4.266-1.298,4.023-4.521,4.013-7.957
		c-0.087-28.996,0.029-57.993-0.145-86.988c-0.023-3.827,1.132-5.447,4.854-5.656c2.473-0.14,4.916-0.845,7.389-0.976
		c4.547-0.239,6.588-2.228,6.854-7.068c0.044-0.812,0.09-1.623,0.14-2.52c8.13-3.674,15.702,0.192,23.77,0.789
		c0,2.344,0,4.269,0,6.133c9.422,0.817,18.49,1.604,27.981,2.427c0,25.885,0,51.399,0,76.751c5.12,2.247,3.662-2.229,4.54-3.83
		c5.641-0.612,10.99-1.343,16.364-1.673c1.393-0.086,3.53,0.672,4.185,1.74c3.417,5.575,8.708,3.764,14.619,4.514
		c0-30.132,0-59.644,0-89.156c0.682-0.319,1.365-0.638,2.047-0.957c0.491,1.171,0.983,2.342,1.659,3.952
		c1.425-1.666,2.348-2.745,3.049-3.564c3.826,0.309,7.521,0.606,11.667,0.94c0-3.639,0-6.903,0-10.532
		c3.252-0.425,6.149-0.804,9.99-1.306c-1.253-2.091-2.188-3.651-3.296-5.501c1.106-1.653,2.291-3.425,3.989-5.963
		c3.045,7.352,9.448,6.339,14.957,6.698c5.299,0.346,11.147,4.659,16.886-2.402c1.029,3.431,1.842,6.14,2.82,9.402
		c1.282,0.21,3.875,0.634,6.604,1.079c0,13.592-0.093,26.895,0.082,40.193c0.033,2.528-1.938,6.338,2.977,7.143
		c0.312,0.051,0.437,2.062,0.417,3.156c-0.061,3.495-0.313,6.989-0.315,10.484c0,1.27,0.498,2.539,0.769,3.81
		c0.659-0.04,1.317-0.079,1.976-0.119c0-2.965-0.146-5.939,0.058-8.89c0.113-1.618-1.341-4.266,2.25-4.421
		c0.346-0.015,0.827-2.528,0.834-3.885c0.065-12.331,0.038-24.663,0.038-36.995c0-1.63,0-3.26,0-5.313c3.169,0,5.923,0,9.771,0
		c-1.392-2.384-2.318-3.972-3.397-5.821c1.11-1.374,2.335-2.89,3.554-4.399c6.822,5.43,23.521,7.744,29.438,3.275
		c0.808,2.928,1.48,5.364,2.152,7.801c-0.449,0.204-0.897,0.407-1.346,0.61c2.515,0.49,5.029,0.98,7.886,1.537
		c0,10.636,0,21.114,0,31.594c0,8.646,0,8.646,6.999,13.285c3.292-0.773,5.787-1.359,9.374-2.202
		c0.067-0.592,0.252-2.479,0.501-4.356c0.354-2.662-1.308-6.197,3.312-7.081c0.554-0.106,0.888-2.646,0.903-4.063
		c0.087-7.665-0.088-15.335,0.145-22.993c0.051-1.67,1.398-3.3,2.576-4.812c1.201-3.66,2.67-7.26,3.527-11
		c0.777-3.389,3.215-3.678,5.648-3.44c6.432,0.627,12.82,1.675,19.246,2.381c1.256,0.138,3.52-0.187,3.756-0.852
		c1.879-5.309,6.399-5.004,10.617-5.438c4.268-0.439,8.537-0.861,13.525-1.364c0-5.729-0.391-11.217,0.104-16.622
		c0.561-6.137,2.019-12.186,2.884-18.302c0.558-3.941,0.752-7.936,1.11-11.919c11.314-5.446,22.234-1.886,33.66,1.764
		c0,4.063-0.133,8.36,0.049,12.645c0.113,2.661-1.487,5.942,2.521,7.584c0.635,0.26,0.456,2.771,0.468,4.242
		c0.22,26.642-0.272,53.318,1.069,79.902c0.355,7.023,1.729,14.348,1.901,21.657c9.757-2.052,9.751-2.052,9.864-11.505
		c0.248-20.646,0.677-41.293,0.631-61.939c-0.012-5.089-0.508-9.346,6.518-7.563c1.838-10.719,11.193-15.371,16.322-24.268
		c5.396,8.448,14.316,13.229,16.651,23.626c0.62,0.128,1.884,0.455,3.167,0.636c2.779,0.391,6.396,0.245,1.959,4.14
		c-0.585,0.514-0.604,1.856-0.609,2.816c-0.045,7.972-0.025,15.944-0.025,25.14c2.716-1.29,4.206-1.998,5.75-2.731
		c4.863,5.729,12.265,3.009,18.813,5.837c0,13.185,0,26.852,0,40.925c3.535,0,6.459,0,8.624,0c1.742,2.581,3.072,4.552,4.402,6.522
		c0.459-0.147,0.918-0.296,1.377-0.443c0.182-3.078,0.172-6.183,0.604-9.226c0.36-2.551-1.613-5.914,2.649-7.442
		c0.766-0.273,0.433-3.612,0.655-6.063c1.93,0,3.748,0.196,5.507-0.045c2.7-0.371,5.255,0.272,7.838-2.664
		c1.526-1.737,6.721-3.256,10.528,0.483c1.646,1.618,5.448,1.042,9.008,1.573c0-7.985-1.313-15.566,0.297-22.465
		c2.654-11.381,1.039-23.587,7.464-34.323c3.548-5.931,4.257-13.627,8.05-19.327c4.784-7.188,6.479-14.697,7.028-22.907
		c0.341-5.086,1.055-10.146,1.601-15.218c0.521-0.003,1.042-0.007,1.563-0.01c0,3.779-0.022,7.56,0.005,11.339
		c0.065,9.164,2.103,17.701,6.193,26.075c4.501,9.214,7.72,19.057,11.47,28.636c0.422,1.074,0.902,2.206,0.958,3.331
		c0.558,11.35,1.034,22.704,1.525,34.058c0.035,0.807,0.005,1.616,0.005,2.482c6.638,0,13.045-0.103,19.446,0.062
		c1.955,0.05,4.844-1.577,5.543,2.221c0.071,0.388,1.805,0.793,2.682,0.653c4.463-0.71,8.897-1.598,13.776-2.503
		c0-7.318,0-14.622,0-22.243c1.942-0.327,3.504-0.591,6.156-1.038c0-3.819-0.043-7.733,0.01-11.646
		c0.104-7.889,1.563-15.464,5.664-22.323c1.171-1.959,2.46-3.967,4.118-5.491c3.661-3.368,7.918-6.229,7.686-12.053
		c-0.009-0.208,0.403-0.507,0.679-0.631c0.283-0.127,0.64-0.092,1.825-0.224c-1.004,6.505,4.772,8.225,8.028,12.053
		c3.121,3.671,4.835,8.978,5.908,13.844c1.371,6.22,1.475,12.719,2.135,19.096c0.308,2.968-1.594,6.979,3.763,7.62
		c0.48,0.058,0.978,2.261,0.999,3.476c0.104,5.801,0.047,11.604,0.047,17.481c2.809,0.47,5.225,0.874,7.633,1.276
		c1.775,4.954,3.474,9.695,5.172,14.437c0.64-0.154,1.279-0.309,1.918-0.462c0-5.011,0-10.021,0-15.344
		c2.964-0.83,5.539-1.326,7.938-2.273c3.943-1.559,8.47-0.76,11.673-5.614c1.764-2.672,7.839-2.704,12.054-3.476
		c2.573-0.472,5.304-0.088,8.423-0.088c-0.29,5.388,3.261,6.075,7.38,5.998c0,55.667,0,111.333,0,167
		c-15.158,0-30.317-0.002-45.476,0c-144.921,0.019-289.843,0.053-434.764,0.053c-146.587,0-293.174-0.033-439.761-0.053
		C511,593.549,511,557.549,511,521.549z"/>
	<path fill-rule="evenodd" clip-rule="evenodd" fill="#FFFFFF" d="M517,629.603c146.587,0.02,293.174,0.053,439.761,0.053
		c144.921,0,289.843-0.034,434.764-0.053c15.158-0.002,30.317,0,45.476,0c-0.166,0.333-0.316,0.943-0.503,0.955
		c-1.328,0.084-2.663,0.045-3.997,0.045c-303.666,0-607.333,0.001-911-0.041C520,630.562,518.5,629.936,517,629.603z"/>
</g>
<g>
	<path fill-rule="evenodd" clip-rule="evenodd" fill="#FFFFFF" d="M505,445.46c0-78.638,0-157.274,0-235.956
		c306.667,0,613.334,0,920,0c0,59.001,0,117.979,0,176.956c-4.119,0.077-7.67-0.61-7.38-5.998c-3.119,0-5.85-0.384-8.423,0.088
		c-4.215,0.771-10.29,0.804-12.054,3.476c-3.203,4.854-7.729,4.056-11.673,5.614c-2.398,0.947-4.974,1.443-7.938,2.273
		c0,5.322,0,10.333,0,15.344c-0.639,0.153-1.278,0.308-1.918,0.462c-1.698-4.741-3.396-9.482-5.172-14.437
		c-2.408-0.402-4.824-0.807-7.633-1.276c0-5.877,0.057-11.681-0.047-17.481c-0.021-1.215-0.519-3.418-0.999-3.476
		c-5.356-0.642-3.455-4.652-3.763-7.62c-0.66-6.377-0.764-12.876-2.135-19.096c-1.073-4.866-2.787-10.173-5.908-13.844
		c-3.256-3.828-9.032-5.548-8.028-12.053c-1.186,0.132-1.542,0.097-1.825,0.224c-0.275,0.124-0.688,0.423-0.679,0.631
		c0.232,5.824-4.024,8.685-7.686,12.053c-1.658,1.524-2.947,3.532-4.118,5.491c-4.102,6.859-5.561,14.435-5.664,22.323
		c-0.053,3.912-0.01,7.826-0.01,11.646c-2.652,0.447-4.214,0.711-6.156,1.038c0,7.621,0,14.925,0,22.243
		c-4.879,0.905-9.313,1.793-13.776,2.503c-0.877,0.14-2.61-0.266-2.682-0.653c-0.699-3.798-3.588-2.171-5.543-2.221
		c-6.401-0.164-12.809-0.062-19.446-0.062c0-0.866,0.03-1.676-0.005-2.482c-0.491-11.354-0.968-22.708-1.525-34.058
		c-0.056-1.125-0.536-2.257-0.958-3.331c-3.75-9.579-6.969-19.422-11.47-28.636c-4.091-8.374-6.128-16.911-6.193-26.075
		c-0.027-3.779-0.005-7.56-0.005-11.339c-0.521,0.003-1.041,0.007-1.563,0.01c-0.546,5.072-1.26,10.132-1.601,15.218
		c-0.55,8.21-2.244,15.719-7.028,22.907c-3.793,5.7-4.502,13.396-8.05,19.327c-6.425,10.736-4.81,22.942-7.464,34.323
		c-1.609,6.898-0.297,14.479-0.297,22.465c-3.56-0.531-7.361,0.045-9.008-1.573c-3.808-3.739-9.002-2.221-10.528-0.483
		c-2.583,2.937-5.138,2.293-7.838,2.664c-1.759,0.241-3.577,0.045-5.507,0.045c-0.223,2.45,0.11,5.789-0.655,6.063
		c-4.263,1.528-2.289,4.892-2.649,7.442c-0.432,3.043-0.422,6.147-0.604,9.226c-0.459,0.147-0.918,0.296-1.377,0.443
		c-1.33-1.971-2.66-3.941-4.402-6.522c-2.165,0-5.089,0-8.624,0c0-14.073,0-27.74,0-40.925c-6.549-2.828-13.95-0.108-18.813-5.837
		c-1.544,0.733-3.034,1.441-5.75,2.731c0-9.195-0.02-17.168,0.025-25.14c0.006-0.96,0.024-2.303,0.609-2.816
		c4.438-3.895,0.82-3.749-1.959-4.14c-1.283-0.181-2.547-0.508-3.167-0.636c-2.335-10.396-11.256-15.178-16.651-23.626
		c-5.129,8.896-14.484,13.549-16.322,24.268c-7.025-1.783-6.529,2.474-6.518,7.563c0.046,20.646-0.383,41.293-0.631,61.939
		c-0.113,9.453-0.107,9.453-9.864,11.505c-0.173-7.31-1.546-14.634-1.901-21.657c-1.342-26.584-0.85-53.261-1.069-79.902
		c-0.012-1.472,0.167-3.982-0.468-4.242c-4.009-1.642-2.408-4.923-2.521-7.584c-0.182-4.284-0.049-8.582-0.049-12.645
		c-11.426-3.649-22.346-7.21-33.66-1.764c-0.358,3.983-0.553,7.978-1.11,11.919c-0.865,6.116-2.323,12.165-2.884,18.302
		c-0.494,5.405-0.104,10.893-0.104,16.622c-4.988,0.503-9.258,0.925-13.525,1.364c-4.218,0.435-8.738,0.13-10.617,5.438
		c-0.236,0.665-2.5,0.989-3.756,0.852c-6.426-0.706-12.814-1.754-19.246-2.381c-2.434-0.237-4.871,0.052-5.648,3.44
		c-0.857,3.74-2.326,7.34-3.527,11c-1.178,1.512-2.525,3.142-2.576,4.812c-0.232,7.658-0.058,15.328-0.145,22.993
		c-0.016,1.416-0.35,3.956-0.903,4.063c-4.619,0.884-2.958,4.419-3.312,7.081c-0.249,1.878-0.434,3.765-0.501,4.356
		c-3.587,0.843-6.082,1.429-9.374,2.202c-6.999-4.639-6.999-4.639-6.999-13.285c0-10.479,0-20.958,0-31.594
		c-2.856-0.557-5.371-1.047-7.886-1.537c0.448-0.203,0.896-0.406,1.346-0.61c-0.672-2.437-1.345-4.873-2.152-7.801
		c-5.916,4.469-22.615,2.154-29.438-3.275c-1.219,1.51-2.444,3.025-3.554,4.399c1.079,1.85,2.006,3.438,3.397,5.821
		c-3.848,0-6.602,0-9.771,0c0,2.053,0,3.683,0,5.313c0,12.332,0.027,24.664-0.038,36.995c-0.007,1.356-0.489,3.87-0.834,3.885
		c-3.592,0.155-2.138,2.803-2.25,4.421c-0.205,2.95-0.058,5.925-0.058,8.89c-0.659,0.04-1.317,0.079-1.976,0.119
		c-0.271-1.271-0.769-2.54-0.769-3.81c0.002-3.495,0.254-6.989,0.315-10.484c0.02-1.095-0.106-3.105-0.417-3.156
		c-4.915-0.805-2.943-4.614-2.977-7.143c-0.175-13.299-0.082-26.602-0.082-40.193c-2.729-0.445-5.322-0.869-6.604-1.079
		c-0.979-3.263-1.791-5.972-2.82-9.402c-5.739,7.062-11.587,2.748-16.886,2.402c-5.508-0.359-11.911,0.653-14.957-6.698
		c-1.698,2.538-2.882,4.31-3.989,5.963c1.108,1.85,2.043,3.41,3.296,5.501c-3.841,0.502-6.738,0.881-9.99,1.306
		c0,3.629,0,6.894,0,10.532c-4.146-0.334-7.841-0.632-11.667-0.94c-0.701,0.819-1.624,1.898-3.049,3.564
		c-0.676-1.61-1.167-2.781-1.659-3.952c-0.682,0.319-1.365,0.638-2.047,0.957c0,29.513,0,59.024,0,89.156
		c-5.911-0.75-11.201,1.062-14.619-4.514c-0.655-1.068-2.792-1.826-4.185-1.74c-5.374,0.33-10.724,1.061-16.364,1.673
		c-0.878,1.602,0.58,6.077-4.54,3.83c0-25.352,0-50.866,0-76.751c-9.491-0.823-18.559-1.609-27.981-2.427c0-1.864,0-3.789,0-6.133
		c-8.068-0.597-15.64-4.463-23.77-0.789c-0.049,0.896-0.095,1.708-0.14,2.52c-0.266,4.841-2.307,6.829-6.854,7.068
		c-2.473,0.131-4.916,0.836-7.389,0.976c-3.722,0.209-4.877,1.829-4.854,5.656c0.173,28.995,0.057,57.992,0.145,86.988
		c0.01,3.436,0.252,6.659-4.013,7.957c-0.333-0.647-0.745-1.447-0.92-1.786c-1.506,0.921-2.937,1.795-5.061,3.093
		c0.278-2.352,0.401-3.397,0.526-4.458c-10.775-0.643-10.775-0.643-12.531,4.192c-5.999-1.949-12.132-5.974-18.69-1.732
		c-0.106,0.069-0.337,0.003-0.486-0.058c-3.099-1.274-6.195-2.558-9.919-4.099c0-5.696,0-12.146,0-19.226
		c-8.009,0-15.611,0-23.107,0c-0.633-1.897-1.066-3.195-1.75-5.242c-4.786,1.189-9.281,2.307-14.922,3.709
		c0-30.307,0-59.972,0-89.613c-13.765-1.756-26.933-3.49-40.117-5.102c-11.331-1.384-22.697-3.16-34.109,1.317
		c-0.4,8.08,0.801,16.281,0.242,24.538c-0.595,8.792-0.134,17.655-0.134,26.487c0,8.665,0,17.331,0,25.997c0,8.81,0,17.62,0,26.277
		c-3.347,1.428-6.336,2.702-9.326,3.978c0.166,0.384,0.332,0.767,0.497,1.15c-1.729,0.944-3.401,2.566-5.195,2.713
		c-6.795,0.557-13.629,0.698-20.451,0.87c-4.605,0.116-9.216,0.022-14.078,0.022c-0.373-7.937-0.741-15.753-1.121-23.826
		c-4.191,0.463-7.271,1.111-10.332,1.031C508.981,447.2,506.997,446.095,505,445.46z"/>
	<path fill-rule="evenodd" clip-rule="evenodd" fill="#454545" d="M511,585.46c1.997,0.635,3.981,1.74,5.994,1.794
		c3.061,0.08,6.141-0.568,10.332-1.031c0.379,8.073,0.748,15.89,1.121,23.826c4.862,0,9.473,0.094,14.078-0.022
		c6.822-0.172,13.656-0.313,20.451-0.87c1.794-0.146,3.467-1.769,5.195-2.713c-0.166-0.384-0.331-0.767-0.497-1.15
		c2.99-1.275,5.979-2.55,9.326-3.978c0-8.657,0-17.468,0-26.277c0-8.666,0-17.332,0-25.997c0-8.832-0.461-17.695,0.134-26.487
		c0.559-8.257-0.642-16.458-0.242-24.538c11.412-4.478,22.779-2.701,34.109-1.317c13.184,1.611,26.352,3.346,40.117,5.102
		c0,29.642,0,59.307,0,89.613c5.642-1.402,10.137-2.52,14.922-3.709c0.683,2.047,1.116,3.345,1.75,5.242c7.497,0,15.098,0,23.107,0
		c0,7.08,0,13.529,0,19.226c3.725,1.541,6.82,2.824,9.919,4.099c0.149,0.061,0.379,0.127,0.486,0.058
		c6.558-4.241,12.692-0.217,18.69,1.732c1.756-4.835,1.756-4.835,12.531-4.192c-0.125,1.061-0.249,2.106-0.526,4.458
		c2.124-1.298,3.555-2.172,5.061-3.093c0.175,0.339,0.587,1.139,0.92,1.786c4.266-1.298,4.023-4.521,4.013-7.957
		c-0.087-28.996,0.029-57.993-0.145-86.988c-0.023-3.827,1.132-5.447,4.854-5.656c2.473-0.14,4.916-0.845,7.389-0.976
		c4.547-0.239,6.588-2.228,6.854-7.068c0.044-0.812,0.09-1.623,0.14-2.52c8.13-3.674,15.702,0.192,23.77,0.789
		c0,2.344,0,4.269,0,6.133c9.422,0.817,18.49,1.604,27.981,2.427c0,25.885,0,51.399,0,76.751c5.12,2.247,3.662-2.229,4.54-3.83
		c5.641-0.612,10.99-1.343,16.364-1.673c1.393-0.086,3.53,0.672,4.185,1.74c3.417,5.575,8.708,3.764,14.619,4.514
		c0-30.132,0-59.644,0-89.156c0.682-0.319,1.365-0.638,2.047-0.957c0.491,1.171,0.983,2.342,1.659,3.952
		c1.425-1.666,2.348-2.745,3.049-3.564c3.826,0.309,7.521,0.606,11.667,0.94c0-3.639,0-6.903,0-10.532
		c3.252-0.425,6.149-0.804,9.99-1.306c-1.253-2.091-2.188-3.651-3.296-5.501c1.106-1.653,2.291-3.425,3.989-5.963
		c3.045,7.352,9.448,6.339,14.957,6.698c5.299,0.346,11.147,4.659,16.886-2.402c1.029,3.431,1.842,6.14,2.82,9.402
		c1.282,0.21,3.875,0.634,6.604,1.079c0,13.592-0.093,26.895,0.082,40.193c0.033,2.528-1.938,6.338,2.977,7.143
		c0.312,0.051,0.437,2.062,0.417,3.156c-0.061,3.495-0.313,6.989-0.315,10.484c0,1.27,0.498,2.539,0.769,3.81
		c0.659-0.04,1.317-0.079,1.976-0.119c0-2.965-0.146-5.939,0.058-8.89c0.113-1.618-1.341-4.266,2.25-4.421
		c0.346-0.015,0.827-2.528,0.834-3.885c0.065-12.331,0.038-24.663,0.038-36.995c0-1.63,0-3.26,0-5.313c3.169,0,5.923,0,9.771,0
		c-1.392-2.384-2.318-3.972-3.397-5.821c1.11-1.374,2.335-2.89,3.554-4.399c6.822,5.43,23.521,7.744,29.438,3.275
		c0.808,2.928,1.48,5.364,2.152,7.801c-0.449,0.204-0.897,0.407-1.346,0.61c2.515,0.49,5.029,0.98,7.886,1.537
		c0,10.636,0,21.114,0,31.594c0,8.646,0,8.646,6.999,13.285c3.292-0.773,5.787-1.359,9.374-2.202
		c0.067-0.592,0.252-2.479,0.501-4.356c0.354-2.662-1.308-6.197,3.312-7.081c0.554-0.106,0.888-2.646,0.903-4.063
		c0.087-7.665-0.088-15.335,0.145-22.993c0.051-1.67,1.398-3.3,2.576-4.812c1.201-3.66,2.67-7.26,3.527-11
		c0.777-3.389,3.215-3.678,5.648-3.44c6.432,0.627,12.82,1.675,19.246,2.381c1.256,0.138,3.52-0.187,3.756-0.852
		c1.879-5.309,6.399-5.004,10.617-5.438c4.268-0.439,8.537-0.861,13.525-1.364c0-5.729-0.391-11.217,0.104-16.622
		c0.561-6.137,2.019-12.186,2.884-18.302c0.558-3.941,0.752-7.936,1.11-11.919c11.314-5.446,22.234-1.886,33.66,1.764
		c0,4.063-0.133,8.36,0.049,12.645c0.113,2.661-1.487,5.942,2.521,7.584c0.635,0.26,0.456,2.771,0.468,4.242
		c0.22,26.642-0.272,53.318,1.069,79.902c0.355,7.023,1.729,14.348,1.901,21.657c9.757-2.052,9.751-2.052,9.864-11.505
		c0.248-20.646,0.677-41.293,0.631-61.939c-0.012-5.089-0.508-9.346,6.518-7.563c1.838-10.719,11.193-15.371,16.322-24.268
		c5.396,8.448,14.316,13.229,16.651,23.626c0.62,0.128,1.884,0.455,3.167,0.636c2.779,0.391,6.396,0.245,1.959,4.14
		c-0.585,0.514-0.604,1.856-0.609,2.816c-0.045,7.972-0.025,15.944-0.025,25.14c2.716-1.29,4.206-1.998,5.75-2.731
		c4.863,5.729,12.265,3.009,18.813,5.837c0,13.185,0,26.852,0,40.925c3.535,0,6.459,0,8.624,0c1.742,2.581,3.072,4.552,4.402,6.522
		c0.459-0.147,0.918-0.296,1.377-0.443c0.182-3.078,0.172-6.183,0.604-9.226c0.36-2.551-1.613-5.914,2.649-7.442
		c0.766-0.273,0.433-3.612,0.655-6.063c1.93,0,3.748,0.196,5.507-0.045c2.7-0.371,5.255,0.272,7.838-2.664
		c1.526-1.737,6.721-3.256,10.528,0.483c1.646,1.618,5.448,1.042,9.008,1.573c0-7.985-1.313-15.566,0.297-22.465
		c2.654-11.381,1.039-23.587,7.464-34.323c3.548-5.931,4.257-13.627,8.05-19.327c4.784-7.188,6.479-14.697,7.028-22.907
		c0.341-5.086,1.055-10.146,1.601-15.218c0.521-0.003,1.042-0.007,1.563-0.01c0,3.779-0.022,7.56,0.005,11.339
		c0.065,9.164,2.103,17.701,6.193,26.075c4.501,9.214,7.72,19.057,11.47,28.636c0.422,1.074,0.902,2.206,0.958,3.331
		c0.558,11.35,1.034,22.704,1.525,34.058c0.035,0.807,0.005,1.616,0.005,2.482c6.638,0,13.045-0.103,19.446,0.062
		c1.955,0.05,4.844-1.577,5.543,2.221c0.071,0.388,1.805,0.793,2.682,0.653c4.463-0.71,8.897-1.598,13.776-2.503
		c0-7.318,0-14.622,0-22.243c1.942-0.327,3.504-0.591,6.156-1.038c0-3.819-0.043-7.733,0.01-11.646
		c0.104-7.889,1.563-15.464,5.664-22.323c1.171-1.959,2.46-3.967,4.118-5.491c3.661-3.368,7.918-6.229,7.686-12.053
		c-0.009-0.208,0.403-0.507,0.679-0.631c0.283-0.127,0.64-0.092,1.825-0.224c-1.004,6.505,4.772,8.225,8.028,12.053
		c3.121,3.671,4.835,8.978,5.908,13.844c1.371,6.22,1.475,12.719,2.135,19.096c0.308,2.968-1.594,6.979,3.763,7.62
		c0.48,0.058,0.978,2.261,0.999,3.476c0.104,5.801,0.047,11.604,0.047,17.481c2.809,0.47,5.225,0.874,7.633,1.276
		c1.775,4.954,3.474,9.695,5.172,14.437c0.64-0.154,1.279-0.309,1.918-0.462c0-5.011,0-10.021,0-15.344
		c2.964-0.83,5.539-1.326,7.938-2.273c3.943-1.559,8.47-0.76,11.673-5.614c1.764-2.672,7.839-2.704,12.054-3.476
		c2.573-0.472,5.304-0.088,8.423-0.088c-0.29,5.388,3.261,6.075,7.38,5.998c0,55.667,0,111.333,0,167
		c-15.158,0-30.317-0.002-45.476,0c-144.921,0.019-289.843,0.053-434.764,0.053c-146.587,0-293.174-0.033-439.761-0.053
		C511,657.46,511,621.46,511,585.46z"/>
</g>
</svg>
