<?xml version="1.0" encoding="utf-8"?>
<!-- Generator: Adobe Illustrator 16.0.3, SVG Export Plug-In . SVG Version: 6.00 Build 0)  -->
<!DOCTYPE svg PUBLIC "-//W3C//DTD SVG 1.1//EN" "http://www.w3.org/Graphics/SVG/1.1/DTD/svg11.dtd">
<svg version="1.1" id="Capa_1" xmlns="http://www.w3.org/2000/svg" xmlns:xlink="http://www.w3.org/1999/xlink" x="0px" y="0px"
	 width="1980px" height="1080px" viewBox="0 0 1980 1080" enable-background="new 0 0 1980 1080" xml:space="preserve">
<g>
	<g>
		<path fill-rule="evenodd" clip-rule="evenodd" fill="#898989" d="M1967.788,382.499c-6.715,0-12.594-0.785-18.132,0.18
			c-9.074,1.578-22.155,1.645-25.951,7.111c-6.896,9.932-16.641,8.298-25.131,11.486c-5.164,1.938-10.708,2.953-17.09,4.652
			c0,10.889,0,21.141,0,31.391c-1.374,0.314-2.752,0.63-4.13,0.946c-3.656-9.7-7.311-19.4-11.133-29.536
			c-5.186-0.823-10.387-1.65-16.435-2.612c0-12.023,0.123-23.897-0.1-35.765c-0.047-2.486-1.117-6.993-2.15-7.111
			c-11.533-1.312-7.44-9.518-8.101-15.589c-1.422-13.047-1.643-26.344-4.597-39.069c-2.312-9.956-6.002-20.813-12.719-28.324
			c-7.012-7.832-19.447-11.35-17.285-24.659c-2.552,0.27-3.321,0.198-3.93,0.458c-0.592,0.253-1.478,0.865-1.46,1.29
			c0.499,11.916-8.666,17.769-16.547,24.659c-3.572,3.119-6.346,7.227-8.866,11.235c-8.829,14.033-11.973,29.531-12.195,45.671
			c-0.113,8.003-0.02,16.012-0.02,23.826c-5.712,0.915-9.072,1.454-13.255,2.124c0,15.592,0,30.535,0,45.508
			c-10.503,1.852-20.052,3.667-29.66,5.12c-1.887,0.286-5.618-0.543-5.772-1.336c-1.504-7.771-7.723-4.441-11.934-4.544
			c-13.782-0.335-27.576-0.126-41.866-0.126c0-1.772,0.066-3.428-0.01-5.078c-1.057-23.229-2.082-46.459-3.286-69.68
			c-0.118-2.301-1.151-4.617-2.061-6.815c-8.074-19.599-15.002-39.736-24.693-58.587c-8.807-17.133-13.192-34.599-13.334-53.348
			c-0.061-7.733-0.009-15.467-0.009-23.199c-1.121,0.005-2.243,0.014-3.366,0.02c-1.175,10.377-2.711,20.729-3.446,31.134
			c-1.183,16.797-4.831,32.16-15.131,46.867c-8.165,11.662-9.692,27.408-17.329,39.542c-13.833,21.966-10.354,46.938-16.07,70.223
			c-3.464,14.114-0.639,29.625-0.639,45.962c-7.663-1.087-15.848,0.092-19.394-3.219c-8.198-7.651-19.38-4.543-22.666-0.99
			c-5.56,6.008-11.062,4.691-16.873,5.451c-3.787,0.493-7.702,0.092-11.856,0.092c-0.48,5.013,0.239,11.844-1.41,12.403
			c-9.179,3.127-4.93,10.008-5.705,15.227c-0.93,6.226-0.907,12.577-1.3,18.875c-0.987,0.301-1.977,0.605-2.964,0.907
			c-2.864-4.032-5.727-8.064-9.479-13.345c-4.659,0-10.955,0-18.566,0c0-28.792,0-56.754,0-83.729
			c-14.099-5.787-30.033-0.222-40.503-11.942c-3.323,1.5-6.532,2.949-12.379,5.588c0-18.813-0.043-35.124,0.053-51.434
			c0.014-1.964,0.054-4.711,1.314-5.762c9.553-7.968,1.765-7.67-4.217-8.47c-2.765-0.37-5.485-1.039-6.819-1.3
			c-5.029-21.271-24.233-31.053-35.85-48.337c-11.042,18.201-31.183,27.72-35.143,49.649c-15.123-3.648-14.056,5.061-14.03,15.473
			c0.1,42.241-0.823,84.482-1.359,126.724c-0.244,19.34-0.229,19.34-21.234,23.538c-0.374-14.955-3.33-29.939-4.095-44.309
			c-2.888-54.389-1.829-108.967-2.304-163.474c-0.023-3.011,0.362-8.148-1.005-8.679c-8.63-3.359-5.185-10.072-5.429-15.517
			c-0.391-8.765-0.104-17.558-0.104-25.869c-24.599-7.467-48.11-14.751-72.467-3.609c-0.771,8.15-1.191,16.322-2.391,24.386
			c-1.865,12.513-5.004,24.889-6.211,37.444c-1.063,11.059-0.221,22.285-0.221,34.007c-10.74,1.029-19.932,1.893-29.119,2.792
			c-9.081,0.889-18.813,0.266-22.859,11.126c-0.508,1.361-5.383,2.024-8.086,1.742c-13.834-1.444-27.586-3.588-41.434-4.87
			c-5.24-0.485-10.487,0.105-12.161,7.038c-1.846,7.652-5.009,15.018-7.594,22.505c-2.538,3.093-5.437,6.428-5.546,9.844
			c-0.502,15.668-0.124,31.36-0.312,47.042c-0.034,2.897-0.752,8.094-1.944,8.312c-9.944,1.808-6.369,9.041-7.131,14.487
			c-0.535,3.843-0.934,7.703-1.077,8.913c-7.724,1.725-13.096,2.923-20.182,4.506c-15.068-9.491-15.068-9.491-15.068-27.181
			c0-21.44,0-42.878,0-64.638c-6.149-1.139-11.564-2.142-16.979-3.145c0.966-0.416,1.932-0.832,2.898-1.249
			c-1.446-4.985-2.896-9.969-4.634-15.959c-12.737,9.143-48.689,4.408-63.376-6.702c-2.625,3.09-5.261,6.19-7.652,9.001
			c2.323,3.784,4.318,7.033,7.314,11.91c-8.284,0-14.214,0-21.037,0c0,4.2,0,7.535,0,10.869c0,25.23,0.057,50.461-0.082,75.689
			c-0.016,2.775-1.053,7.917-1.796,7.948c-7.733,0.318-4.604,5.734-4.845,9.045c-0.441,6.036-0.125,12.122-0.125,18.188
			c-1.418,0.082-2.836,0.162-4.256,0.243c-0.582-2.6-1.655-5.197-1.655-7.794c0.005-7.15,0.549-14.299,0.68-21.45
			c0.042-2.239-0.228-6.353-0.899-6.457c-10.581-1.646-6.337-9.44-6.408-14.614c-0.378-27.208-0.176-54.424-0.176-82.232
			c-5.876-0.911-11.458-1.778-14.218-2.208c-2.106-6.674-3.856-12.217-6.072-19.236c-12.355,14.448-24.946,5.623-36.355,4.915
			c-11.856-0.735-25.643,1.337-32.199-13.704c-3.655,5.193-6.206,8.817-8.588,12.2c2.387,3.784,4.398,6.977,7.097,11.254
			c-8.271,1.027-14.506,1.802-21.509,2.671c0,7.425,0,14.104,0,21.548c-8.924-0.683-16.879-1.292-25.117-1.923
			c-1.51,1.676-3.498,3.883-6.565,7.292c-1.454-3.295-2.512-5.69-3.569-8.085c-1.47,0.653-2.938,1.304-4.406,1.958
			c0,60.381,0,120.76,0,182.407c-12.726-1.535-24.117,2.172-31.473-9.234c-1.41-2.186-6.011-3.736-9.01-3.561
			c-11.57,0.676-23.085,2.169-35.23,3.422c-1.891,3.277,1.249,12.434-9.774,7.836c0-51.868,0-104.069,0-157.027
			c-20.435-1.684-39.955-3.292-60.241-4.965c0-3.814,0-7.752,0-12.547c-17.37-1.221-33.672-9.131-51.174-1.615
			c-0.106,1.834-0.206,3.494-0.301,5.155c-0.572,9.904-4.966,13.972-14.755,14.462c-5.324,0.267-10.582,1.709-15.907,1.996
			c-8.014,0.428-10.501,3.742-10.452,11.572c0.374,59.322,0.122,118.648,0.311,177.972c0.022,7.029,0.543,13.624-8.64,16.279
			c-0.717-1.324-1.604-2.961-1.98-3.654c-3.243,1.884-6.324,3.672-10.896,6.328c0.597-4.812,0.863-6.951,1.132-9.121
			c-23.198-1.314-23.198-1.314-26.979,8.577c-12.913-3.987-26.119-12.222-40.238-3.545c-0.229,0.143-0.726,0.007-1.045-0.117
			c-6.673-2.607-13.338-5.232-21.356-8.386c0-11.654,0-24.849,0-39.333c-17.243,0-33.608,0-49.749,0
			c-1.363-3.882-2.295-6.538-3.766-10.726c-10.304,2.434-19.981,4.72-32.127,7.589c0-62.005,0-122.698,0-183.342
			c-29.635-3.592-57.985-7.141-86.368-10.438c-24.394-2.832-48.865-6.466-73.435,2.695c-0.862,16.531,1.724,33.31,0.521,50.203
			c-1.282,17.988-0.288,36.122-0.288,54.191c0,17.728,0,35.458,0,53.188c0,18.023,0,36.049,0,53.761
			c-7.206,2.921-13.641,5.529-20.078,8.139c0.357,0.785,0.713,1.568,1.07,2.354c-3.721,1.932-7.323,5.251-11.185,5.551
			c-14.63,1.139-29.342,1.428-44.029,1.779c-9.916,0.238-19.843,0.047-30.309,0.047c-0.803-16.238-1.597-32.23-2.414-48.748
			c-9.023,0.947-15.654,2.274-22.243,2.11c-4.333-0.11-8.605-2.372-12.904-3.67c0,73.653,0,147.307,0,220.961
			c315.589,0.039,631.177,0.107,946.766,0.107c312.001,0,624.004-0.07,936.006-0.107c32.634-0.005,65.27,0,97.906,0
			c0-113.892,0-227.78,0-341.67C1974.809,394.929,1967.164,393.522,1967.788,382.499z"/>
	</g>
</g>
<g>
	<g>
		<path fill-rule="evenodd" clip-rule="evenodd" fill="#FFFFFF" d="M1898.689,736.551c-312.002,0.038-624.006,0.107-936.007,0.107
			c-315.587,0-631.176-0.067-946.765-0.107c3.229,0.681,6.459,1.962,9.688,1.962c653.767,0.086,1307.535,0.084,1961.301,0.084
			c2.871,0,5.746,0.079,8.605-0.092c0.402-0.023,0.725-1.273,1.082-1.954C1963.96,736.551,1931.324,736.547,1898.689,736.551z"/>
	</g>
</g>
<g>
	<g>
		<path fill-rule="evenodd" clip-rule="evenodd" fill="#454545" d="M1967.788,513.256c-6.715,0-12.594-0.785-18.132,0.18
			c-9.074,1.578-22.155,1.645-25.951,7.111c-6.896,9.932-16.641,8.298-25.131,11.486c-5.164,1.938-10.708,2.953-17.09,4.652
			c0,10.889,0,21.14,0,31.392c-1.374,0.313-2.752,0.63-4.13,0.945c-3.656-9.701-7.311-19.401-11.133-29.537
			c-5.186-0.823-10.387-1.65-16.435-2.611c0-12.024,0.123-23.897-0.1-35.766c-0.047-2.485-1.117-6.993-2.15-7.111
			c-11.533-1.313-7.44-9.519-8.101-15.59c-1.422-13.047-1.643-26.343-4.597-39.069c-2.312-9.956-6.002-20.813-12.719-28.323
			c-7.012-7.832-19.447-11.35-17.285-24.659c-2.552,0.27-3.321,0.197-3.93,0.458c-0.592,0.254-1.478,0.865-1.46,1.291
			c0.499,11.916-8.666,17.768-16.547,24.659c-3.572,3.119-6.346,7.227-8.866,11.235c-8.829,14.033-11.973,29.532-12.195,45.672
			c-0.113,8.003-0.02,16.012-0.02,23.825c-5.712,0.915-9.072,1.456-13.255,2.125c0,15.592,0,30.535,0,45.508
			c-10.503,1.852-20.052,3.668-29.66,5.12c-1.887,0.286-5.618-0.543-5.772-1.336c-1.504-7.771-7.723-4.442-11.934-4.544
			c-13.782-0.335-27.576-0.126-41.866-0.126c0-1.772,0.066-3.428-0.01-5.079c-1.057-23.228-2.082-46.458-3.286-69.679
			c-0.118-2.301-1.151-4.617-2.061-6.815c-8.074-19.598-15.002-39.736-24.693-58.586c-8.807-17.133-13.192-34.599-13.334-53.348
			c-0.061-7.732-0.009-15.466-0.009-23.199c-1.121,0.006-2.243,0.015-3.366,0.02c-1.175,10.378-2.711,20.729-3.446,31.135
			c-1.183,16.797-4.831,32.159-15.131,46.867c-8.165,11.662-9.692,27.408-17.329,39.542c-13.833,21.966-10.354,46.938-16.07,70.223
			c-3.464,14.114-0.639,29.625-0.639,45.962c-7.663-1.087-15.848,0.092-19.394-3.219c-8.198-7.65-19.38-4.543-22.666-0.989
			c-5.56,6.008-11.062,4.691-16.873,5.45c-3.787,0.494-7.702,0.092-11.856,0.092c-0.48,5.014,0.239,11.845-1.41,12.404
			c-9.179,3.127-4.93,10.008-5.705,15.226c-0.93,6.227-0.907,12.578-1.3,18.876c-0.987,0.302-1.977,0.604-2.964,0.907
			c-2.864-4.033-5.727-8.064-9.479-13.345c-4.659,0-10.955,0-18.566,0c0-28.793,0-56.755,0-83.729
			c-14.099-5.786-30.033-0.222-40.503-11.941c-3.323,1.5-6.532,2.948-12.379,5.588c0-18.813-0.043-35.125,0.053-51.434
			c0.014-1.964,0.054-4.711,1.314-5.762c9.553-7.968,1.765-7.67-4.217-8.47c-2.765-0.37-5.485-1.039-6.819-1.301
			c-5.029-21.271-24.233-31.052-35.85-48.337c-11.042,18.201-31.183,27.72-35.143,49.649c-15.123-3.648-14.056,5.062-14.03,15.473
			c0.1,42.241-0.823,84.482-1.359,126.724c-0.244,19.34-0.229,19.34-21.234,23.538c-0.374-14.956-3.33-29.94-4.095-44.31
			c-2.888-54.389-1.829-108.967-2.304-163.475c-0.023-3.011,0.362-8.148-1.005-8.679c-8.63-3.358-5.185-10.072-5.429-15.516
			c-0.391-8.765-0.104-17.559-0.104-25.87c-24.599-7.467-48.11-14.751-72.467-3.608c-0.771,8.15-1.191,16.322-2.391,24.385
			c-1.865,12.513-5.004,24.889-6.211,37.444c-1.063,11.059-0.221,22.286-0.221,34.008c-10.74,1.029-19.932,1.892-29.119,2.791
			c-9.081,0.889-18.813,0.266-22.859,11.126c-0.508,1.361-5.383,2.024-8.086,1.743c-13.834-1.445-27.586-3.589-41.434-4.872
			c-5.24-0.486-10.487,0.106-12.161,7.039c-1.846,7.652-5.009,15.017-7.594,22.506c-2.538,3.092-5.437,6.427-5.546,9.844
			c-0.502,15.667-0.124,31.36-0.312,47.042c-0.034,2.897-0.752,8.094-1.944,8.312c-9.944,1.808-6.369,9.042-7.131,14.487
			c-0.535,3.843-0.934,7.702-1.077,8.913c-7.724,1.725-13.096,2.923-20.182,4.506c-15.068-9.49-15.068-9.49-15.068-27.181
			c0-21.44,0-42.878,0-64.639c-6.149-1.139-11.564-2.142-16.979-3.145c0.966-0.416,1.932-0.832,2.898-1.249
			c-1.446-4.985-2.896-9.97-4.634-15.96c-12.737,9.143-48.689,4.408-63.376-6.701c-2.625,3.089-5.261,6.19-7.652,9.001
			c2.323,3.784,4.318,7.033,7.314,11.91c-8.284,0-14.214,0-21.037,0c0,4.2,0,7.535,0,10.869c0,25.23,0.057,50.46-0.082,75.689
			c-0.016,2.775-1.053,7.917-1.796,7.947c-7.733,0.318-4.604,5.734-4.845,9.045c-0.441,6.036-0.125,12.122-0.125,18.188
			c-1.418,0.082-2.836,0.161-4.256,0.244c-0.582-2.6-1.655-5.197-1.655-7.794c0.005-7.151,0.549-14.3,0.68-21.451
			c0.042-2.239-0.228-6.354-0.899-6.457c-10.581-1.646-6.337-9.44-6.408-14.613c-0.378-27.208-0.176-54.425-0.176-82.232
			c-5.876-0.911-11.458-1.778-14.218-2.208c-2.106-6.675-3.856-12.217-6.072-19.236c-12.355,14.447-24.946,5.623-36.355,4.915
			c-11.856-0.735-25.643,1.337-32.199-13.705c-3.655,5.193-6.206,8.817-8.588,12.2c2.387,3.784,4.398,6.977,7.097,11.254
			c-8.271,1.027-14.506,1.802-21.509,2.671c0,7.425,0,14.104,0,21.549c-8.924-0.684-16.879-1.292-25.117-1.924
			c-1.51,1.676-3.498,3.884-6.565,7.292c-1.454-3.294-2.512-5.689-3.569-8.086c-1.47,0.654-2.938,1.305-4.406,1.959
			c0,60.38,0,120.759,0,182.406c-12.726-1.535-24.117,2.173-31.473-9.234c-1.41-2.186-6.011-3.737-9.01-3.561
			c-11.57,0.676-23.085,2.171-35.23,3.424c-1.891,3.275,1.249,12.432-9.774,7.835c0-51.867,0-104.068,0-157.027
			c-20.435-1.684-39.955-3.292-60.241-4.965c0-3.814,0-7.752,0-12.547c-17.37-1.22-33.672-9.13-51.174-1.614
			c-0.106,1.834-0.206,3.495-0.301,5.155c-0.572,9.903-4.966,13.971-14.755,14.461c-5.324,0.268-10.582,1.71-15.907,1.996
			c-8.014,0.427-10.501,3.742-10.452,11.572c0.374,59.322,0.122,118.648,0.311,177.972c0.022,7.029,0.543,13.624-8.64,16.278
			c-0.717-1.324-1.604-2.96-1.98-3.653c-3.243,1.884-6.324,3.673-10.896,6.328c0.597-4.811,0.863-6.951,1.132-9.122
			c-23.198-1.313-23.198-1.313-26.979,8.578c-12.913-3.988-26.119-12.222-40.238-3.545c-0.229,0.143-0.726,0.006-1.045-0.118
			c-6.673-2.606-13.338-5.232-21.356-8.384c0-11.655,0-24.85,0-39.335c-17.243,0-33.608,0-49.749,0
			c-1.363-3.881-2.295-6.537-3.766-10.725c-10.304,2.433-19.981,4.718-32.127,7.587c0-62.005,0-122.697,0-183.342
			c-29.635-3.592-57.985-7.141-86.368-10.437c-24.394-2.831-48.865-6.466-73.435,2.695c-0.862,16.531,1.724,33.311,0.521,50.203
			c-1.282,17.988-0.288,36.121-0.288,54.191c0,17.729,0,35.458,0,53.188c0,18.024,0,36.05,0,53.762
			c-7.206,2.921-13.641,5.529-20.078,8.139c0.357,0.785,0.713,1.568,1.07,2.354c-3.721,1.932-7.323,5.251-11.185,5.551
			c-14.63,1.138-29.342,1.427-44.029,1.779c-9.916,0.238-19.843,0.047-30.309,0.047c-0.803-16.237-1.597-32.23-2.414-48.747
			c-9.023,0.947-15.654,2.273-22.243,2.109c-4.333-0.109-8.605-2.371-12.904-3.67c0,73.653,0,147.307,0,220.961
			c315.589,0.039,631.177,0.107,946.766,0.107c312.001,0,624.004-0.071,936.006-0.107c32.634-0.005,65.27,0,97.906,0
			c0-113.892,0-227.78,0-341.67C1974.809,525.687,1967.164,524.28,1967.788,513.256z"/>
	</g>
</g>
<path fill-rule="evenodd" clip-rule="evenodd" fill="#454545" d="M3,515.48"/>
</svg>
